<?xml version="1.0" encoding="utf-8"?>
<!-- Generator: Adobe Illustrator 24.1.0, SVG Export Plug-In . SVG Version: 6.00 Build 0)  -->
<svg version="1.1" id="Capa_1" xmlns="http://www.w3.org/2000/svg" xmlns:xlink="http://www.w3.org/1999/xlink" x="0px" y="0px"
	 viewBox="0 0 14 14" style="enable-background:new 0 0 14 14;" xml:space="preserve">
<style type="text/css">
	.st0{fill:#FFFFFF;}
</style>
<g id="GIFOS">
	<g id="_x30_0-UI-Kit" transform="translate(-669.000000, -2993.000000)">
		<g id="close" transform="translate(669.000000, 2993.000000)">
			<g>
				<path id="path-1_1_" class="st0" d="M0.3,0.3c0.4-0.4,1-0.4,1.4,0l0,0L7,5.6l5.3-5.3c0.4-0.4,0.9-0.4,1.3-0.1l0.1,0.1
					c0.4,0.4,0.4,1,0,1.4l0,0L8.4,7l5.3,5.3c0.4,0.4,0.4,0.9,0.1,1.3l-0.1,0.1c-0.4,0.4-1,0.4-1.4,0l0,0L7,8.4l-5.3,5.3
					c-0.4,0.4-0.9,0.4-1.3,0.1l-0.1-0.1c-0.4-0.4-0.4-1,0-1.4l0,0L5.6,7L0.3,1.7C-0.1,1.3-0.1,0.8,0.3,0.3L0.3,0.3z"/>
			</g>
		</g>
	</g>
</g>
</svg>
