<?xml version="1.0" encoding="utf-8"?>
<!-- Generator: Adobe Illustrator 24.1.0, SVG Export Plug-In . SVG Version: 6.00 Build 0)  -->
<svg version="1.1" id="Capa_1" xmlns="http://www.w3.org/2000/svg" xmlns:xlink="http://www.w3.org/1999/xlink" x="0px" y="0px"
	 viewBox="0 0 16 16" style="enable-background:new 0 0 16 16;" xml:space="preserve">
<style type="text/css">
	.st0{fill:#FFFFFF;}
</style>
<desc>Created with Sketch.</desc>
<g id="GIFOS">
	<g id="_x30_0-UI-Kit" transform="translate(-188.000000, -2784.000000)">
		<g id="button-crear-gifo" transform="translate(188.000000, 2784.000000)">
			<g>
				<path id="path-1_1_" class="st0" d="M8,0c0.6,0,1,0.4,1,1l0,0v6h6c0.5,0,0.9,0.4,1,0.9L16,8c0,0.6-0.4,1-1,1l0,0H9v6
					c0,0.5-0.4,0.9-0.9,1L8,16c-0.6,0-1-0.4-1-1l0,0V9H1C0.5,9,0.1,8.6,0,8.1L0,8c0-0.6,0.4-1,1-1l0,0h6V1c0-0.5,0.4-0.9,0.9-1L8,0z
					"/>
			</g>
		</g>
	</g>
</g>
</svg>
