<?xml version="1.0" encoding="utf-8"?>
<!-- Generator: Adobe Illustrator 24.1.0, SVG Export Plug-In . SVG Version: 6.00 Build 0)  -->
<svg version="1.1" id="Capa_1" xmlns="http://www.w3.org/2000/svg" xmlns:xlink="http://www.w3.org/1999/xlink" x="0px" y="0px"
	 viewBox="0 0 18 18" style="enable-background:new 0 0 18 18;" xml:space="preserve">
<style type="text/css">
	.st0{fill:none;}
	.st1{fill-rule:evenodd;clip-rule:evenodd;fill:#572EE5;}
</style>
<desc>Created with Sketch.</desc>
<rect id="Rectangle-Copy-2" x="-1" y="-1" class="st0" width="20" height="20"/>
<path id="Clip-19" class="st1" d="M8.6,1.6c2.3,0,2.6,0,3.5,0.1c0.8,0,1.3,0.2,1.6,0.3c0.4,0.2,0.7,0.4,1,0.7c0.3,0.3,0.5,0.6,0.6,1
	c0.1,0.3,0.3,0.8,0.3,1.7c0,0.9,0,1.2,0,3.6s0,2.7,0,3.6c0,0.9-0.2,1.4-0.3,1.7c-0.2,0.4-0.3,0.7-0.6,1c-0.3,0.3-0.6,0.5-1,0.7
	c-0.3,0.1-0.8,0.3-1.6,0.3c-0.9,0-1.2,0.1-3.5,0.1s-2.6,0-3.5-0.1c-0.8,0-1.3-0.2-1.6-0.3c-0.4-0.2-0.7-0.4-1-0.7
	c-0.3-0.3-0.5-0.6-0.6-1c-0.1-0.3-0.3-0.8-0.3-1.7c0-0.9,0-1.2,0-3.6s0-2.7,0-3.6c0-0.9,0.2-1.4,0.3-1.7C2,3.3,2.2,3,2.5,2.7
	c0.3-0.3,0.6-0.5,1-0.7c0.3-0.1,0.8-0.3,1.6-0.3C6,1.6,6.3,1.6,8.6,1.6L8.6,1.6z M8.6,0C6.2,0,6,0,5,0.1C4.1,0.1,3.5,0.2,3,0.5
	c-0.6,0.2-1,0.5-1.5,1C1,2,0.7,2.5,0.4,3.1C0.2,3.7,0.1,4.3,0.1,5.3C0,6.2,0,6.6,0,9s0,2.8,0.1,3.7c0,1,0.2,1.6,0.4,2.2
	c0.2,0.6,0.5,1.1,1,1.6c0.5,0.5,1,0.8,1.5,1c0.5,0.2,1.2,0.4,2.1,0.4C6,18,6.2,18,8.6,18s2.6,0,3.5-0.1c0.9,0,1.5-0.2,2.1-0.4
	c0.6-0.2,1-0.5,1.5-1c0.5-0.5,0.8-1,1-1.6c0.2-0.6,0.4-1.2,0.4-2.2c0-1,0.1-1.3,0.1-3.7s0-2.8-0.1-3.7c0-1-0.2-1.6-0.4-2.2
	c-0.2-0.6-0.5-1.1-1-1.6c-0.5-0.5-1-0.8-1.5-1c-0.5-0.2-1.2-0.4-2.1-0.4C11.2,0,10.9,0,8.6,0L8.6,0z M8.6,4.4C6.2,4.4,4.2,6.5,4.2,9
	c0,2.6,2,4.6,4.4,4.6C11,13.6,13,11.6,13,9C13,6.5,11,4.4,8.6,4.4L8.6,4.4z M8.6,12C7,12,5.7,10.7,5.7,9S7,6,8.6,6s2.9,1.3,2.9,3
	S10.2,12,8.6,12L8.6,12z M14.1,4.2c0,0.6-0.5,1.1-1,1.1c-0.6,0-1-0.5-1-1.1c0-0.6,0.5-1.1,1-1.1C13.7,3.1,14.1,3.6,14.1,4.2
	L14.1,4.2z"/>
<rect id="Rectangle" x="-1" y="-1" class="st0" width="20" height="20"/>
</svg>
