<?xml version="1.0" encoding="utf-8"?>
<!-- Generator: Adobe Illustrator 24.1.0, SVG Export Plug-In . SVG Version: 6.00 Build 0)  -->
<svg version="1.1" id="Capa_1" xmlns="http://www.w3.org/2000/svg" xmlns:xlink="http://www.w3.org/1999/xlink" x="0px" y="0px"
	 viewBox="0 0 18 17" style="enable-background:new 0 0 18 17;" xml:space="preserve">
<style type="text/css">
	.st0{fill:none;}
	.st1{fill-rule:evenodd;clip-rule:evenodd;fill:#572EE5;}
</style>
<desc>Created with Sketch.</desc>
<g id="GIFOS">
	<g id="_x30_0-UI-Kit" transform="translate(-1057.000000, -2780.000000)">
		<g id="Footer" transform="translate(328.000000, 1736.000000)">
			<g id="icon-twitter" transform="translate(728.000000, 1042.000000)">
				<rect id="Rectangle-Copy-9" class="st0" width="20" height="20"/>
				<path class="st1" d="M18.5,2.3c-0.7,0.5-1.5,0.8-2.3,1C15.5,2.5,14.5,2,13.5,2c-2,0-3.7,1.8-3.7,4.1c0,0.3,0,0.6,0.1,0.9
					C6.8,6.9,4.1,5.2,2.3,2.7C1.9,3.4,1.8,4.1,1.8,4.8c0,1.4,0.7,2.7,1.6,3.4C2.8,8.2,2.2,8,1.7,7.7v0.1c0,2,1.3,3.6,3,4
					c-0.3,0.1-0.6,0.1-1,0.1c-0.2,0-0.5,0-0.7-0.1c0.5,1.6,1.8,2.8,3.4,2.8c-1.3,1.1-2.9,1.8-4.6,1.8c-0.3,0-0.6,0-0.9-0.1
					c1.6,1.2,3.6,1.8,5.7,1.8c6.8,0,10.5-6.2,10.5-11.6c0-0.2,0-0.4,0-0.5c0.7-0.6,1.3-1.3,1.8-2.1c-0.7,0.3-1.4,0.5-2.1,0.6
					C17.6,4.1,18.2,3.3,18.5,2.3z"/>
				<rect id="Rectangle-Copy-10" class="st0" width="20" height="20"/>
			</g>
		</g>
	</g>
</g>
</svg>
