<?xml version="1.0" encoding="utf-8"?>
<!-- Generator: Adobe Illustrator 24.1.0, SVG Export Plug-In . SVG Version: 6.00 Build 0)  -->
<svg version="1.1" id="Capa_1" xmlns="http://www.w3.org/2000/svg" xmlns:xlink="http://www.w3.org/1999/xlink" x="0px" y="0px"
	 viewBox="0 0 53 49" style="enable-background:new 0 0 53 49;" xml:space="preserve">
<style type="text/css">
	.st0{fill-rule:evenodd;clip-rule:evenodd;fill:#5ED7C6;}
	.st1{filter:url(#Adobe_OpacityMaskFilter);}
	.st2{fill-rule:evenodd;clip-rule:evenodd;fill:#FFFFFF;}
	.st3{mask:url(#mask-2_1_);enable-background:new    ;}
	.st4{fill:#FFFFFF;}
	.st5{font-family:'Roboto-Bold';}
	.st6{font-size:16px;}
</style>
<g id="GIFOS_1_">
	<g id="_x30_0-UI-Kit" transform="translate(-347.000000, -2463.000000)">
		<g id="logo-mobile" transform="translate(347.000000, 2463.000000)">
			<g id="Group-5">
				<polygon id="Fill-1" class="st0" points="0,0 0,48.8 48.8,48.8 48.8,38.3 45.3,38.3 45.3,45.3 3.5,45.3 3.5,3.5 34.9,3.5 
					34.9,13.9 45.3,13.9 45.3,20.9 48.8,20.9 48.8,10.5 38.3,0 				"/>
				<g id="Group-4" transform="translate(7.000000, 16.000000)">
					<defs>
						<filter id="Adobe_OpacityMaskFilter" filterUnits="userSpaceOnUse" x="1" y="6.3" width="45.7" height="18">
							<feColorMatrix  type="matrix" values="1 0 0 0 0  0 1 0 0 0  0 0 1 0 0  0 0 0 1 0"/>
						</filter>
					</defs>
					<mask maskUnits="userSpaceOnUse" x="1" y="6.3" width="45.7" height="18" id="mask-2_1_">
						<g class="st1">
							<polygon id="path-1_1_" class="st2" points="0.8,0.9 48.5,0.9 48.5,20.5 0.8,20.5 							"/>
						</g>
					</mask>
					<g class="st3">
						<text transform="matrix(1 0 0 1 1 20)" class="st4 st5 st6">GIFOS</text>
					</g>
				</g>
			</g>
		</g>
	</g>
</g>
</svg>
